<?xml version="1.0" encoding="utf-8"?>
<!-- Generator: Adobe Illustrator 27.5.0, SVG Export Plug-In . SVG Version: 6.00 Build 0)  -->
<svg version="1.1" xmlns="http://www.w3.org/2000/svg" xmlns:xlink="http://www.w3.org/1999/xlink" x="0px" y="0px"
	 viewBox="0 0 499.999 500" style="enable-background:new 0 0 499.999 500;" xml:space="preserve">
<g id="BACKGROUND">
</g>
<g id="OBJECTS">
	<g id="XMLID_100_">
		<path id="XMLID_35_" style="fill:#232323;" d="M464.146,98.052c-0.148-2.444-2.201-4.584-6.102-6.359
			c-4.023-1.831-12.784-3.024-20.423,1.194c-4.611,2.546-7.358,5.889-7.537,9.172c-0.093,1.699,0.551,3.275,1.814,4.559
			l-12.781,8.18c-0.673-0.345-1.502-0.342-2.184,0.095l-2.066,1.322c-0.428-0.369-1.472-0.83-2.983-1.077
			c-2.515-0.412-2.881-0.457-4.482-1.601c-1.601-1.143-8.506-4.619-11.159-6.723c-2.652-2.104-4.756-4.482-4.756-4.482
			s3.521-0.595,4.253-0.412c0.732,0.183,5.534,2.149,5.991,0.96c0,0,0.503-0.549-1.006-1.098c-1.509-0.549-2.149-1.143-2.973-1.189
			c-0.823-0.046-2.058-0.503-1.966-0.823c0.091-0.32,1.006-0.412,2.149-0.32c1.143,0.091,3.659-0.32,4.893-0.274
			c1.235,0.046,1.921-0.366,1.784-1.189c-0.137-0.823-0.914-0.96-2.149-0.869c-1.235,0.092-6.22,0.366-6.311-0.183
			c-0.092-0.549,1.829-1.765,2.835-2.313c1.006-0.549,6.046-3.208,5.259-4.272c-0.689-0.932-5.883,2.366-6.844,2.869
			c-0.96,0.503-1.983,1.109-2.349,0.652c-0.366-0.457,2.248-2.545,3.209-3.322c0.96-0.777,2.919-1.983,2.188-2.623
			c-0.732-0.64-2.988,0.844-4.315,2.171c-1.326,1.326-5.015,3.18-5.564,3.363c-0.549,0.183-1.646,0.137-1.829-0.366
			c-0.183-0.503,1.098-0.64,1.006-2.424c-0.091-1.784-0.732-2.927-1.601-2.835c-0.869,0.091-0.914,0.96-0.777,2.149
			c0.137,1.189-1.143,3.933-1.601,3.842l-2.058-4.436c0,0,1.189-4.436-0.229-8.186c-1.418-3.75-5.168-4.665-5.168-4.665
			s1.189-2.378,1.235-3.43c0,0,1.555,0.137,2.79-1.463c1.235-1.601,1.601-2.835,1.326-4.893c0,0,1.098-1.326,1.509-4.436
			c0.412-3.11,0.869-7.409-4.802-9.604c0,0-0.915-3.659-6.311-3.293c-5.396,0.366-9.421,6.128-10.107,7.089
			c-0.686,0.96-1.052,3.704,0,4.299c0,0-0.275,4.207-0.457,5.076c-0.183,0.869,0.274,1.189,0.274,1.966
			c0,0.778-0.229,1.921,0.595,4.528l-3.522-0.046c0,0-1.28-0.046-1.463,1.326c0,0-0.823,0.091-1.235,0.869
			c-0.412,0.777-5.305,0.777-9.055,3.796c-3.75,3.018-5.396,7.729-6.723,10.198c-1.326,2.47-6.448,16.921-7.317,19.071
			s-0.366,3.064-0.686,3.75c-0.32,0.686-0.823,0.869-0.915,1.555c-0.091,0.686,0.686,0.823-0.274,1.784
			c-0.96,0.96-1.052,1.829-0.869,2.927c0.183,1.098-1.601,0.777-1.646,2.515c-0.046,1.738-0.366,2.104-1.784,3.933
			c-1.418,1.829-2.652,3.887-2.515,5.579c0.137,1.692-0.595,3.247-1.372,3.339c-0.777,0.091-2.332,1.418-1.235,3.156
			c0,0,0.412,0.594-0.092,1.189c-0.503,0.595-0.457,1.326-1.372,1.692c-0.915,0.366-1.829,3.293-1.967,5.305
			c-0.137,2.012-0.823,2.744-1.418,2.744c-0.595,0-0.96,0.366-1.098,2.058c-0.137,1.692-1.509,3.659-2.058,5.488
			c-0.549,1.829-3.384,7.912-3.567,8.643c-0.183,0.732-1.921,5.351-2.47,7.226c-0.549,1.875-1.921,4.162-2.607,4.756
			c-0.686,0.595-5.716,4.162-7.546,6.951c-1.829,2.79-3.613,9.009-3.887,9.558c-0.274,0.549-1.692,1.052-2.424,3.704
			c-0.732,2.652-1.326,5.305-3.247,7.317c0,0-1.418,0.64-1.418,2.378c0,0-1.326,0.274-3.43,3.018
			c-2.104,2.744-5.168,6.265-5.671,7.043c-0.503,0.777-4.482,5.945,2.698,5.945c7.18,0,8.643-0.686,9.101-1.463
			c0.457-0.777,0.777-1.555,1.464-2.104s1.921-1.189,2.012-2.607c0.092-1.418,0.64-2.058,1.143-2.698
			c0.503-0.64,1.052-1.235,1.326-3.156c0.274-1.921-0.549-2.79,1.829-6.54c2.378-3.75,4.71-5.717,6.357-6.768
			c1.646-1.052,4.573-3.018,5.762-7.134c1.189-4.116,3.659-4.573,6.082-6.769c2.424-2.195,4.893-2.652,8.232-9.832
			c0,0,3.476,0.137,5.168,0.503c1.692,0.366,3.43,0.777,4.07,0.32c0.64-0.457,1.143-1.235,1.463-3.796
			c0.32-2.561,0.915-6.082,3.933-10.336c3.018-4.253,5.534-4.482,6.54-5.534c1.006-1.052,1.052-2.241,2.561-2.058
			c1.509,0.183,4.345,3.018,6.128,5.214c1.784,2.195,4.939,5.488,5.579,6.86c0.64,1.372,2.195,4.619,5.899,3.156
			c3.704-1.463,6.266-3.384,6.266-3.384s3.018,1.784,4.71,3.247c1.692,1.463,3.476,2.378,3.567,3.567
			c0.092,1.189,0.64,8.598,1.418,12.028c0.777,3.43,4.848,13.034,4.848,13.034s0,1.189,0.686,2.79
			c0.686,1.601,2.332,8.003,2.012,10.153c-0.32,2.15-0.229,3.064-1.189,4.07c-0.96,1.006-1.235,9.97,0.274,10.244
			c1.509,0.274,4.07,0.274,4.939,0.96c0.869,0.686,3.018,1.692,6.814,1.509c3.796-0.183,5.9-0.046,6.403-1.738
			c0.503-1.692-0.686-3.979-2.515-4.665c0,0-2.241-5.259-5.351-8.095c0,0,0.594-3.476-1.646-4.39c0,0-0.823-1.692-1.052-8.278
			c-0.229-6.585-0.183-11.296-1.098-17.195c-0.915-5.9-1.646-11.799-3.018-14.726c-1.372-2.927-0.96-4.024-1.966-5.717
			c-1.006-1.692-1.967-3.842-3.293-5.671c-1.326-1.829-2.424-4.665-6.403-8.689c-3.979-4.025-5.351-5.122-5.671-5.351
			c-0.32-0.229-0.64-1.784-2.332-2.195c-1.692-0.412-2.424-2.881-2.104-3.659c0.32-0.778,1.326-1.509-1.098-3.384
			c0,0-0.595-2.424-2.378-3.521c0,0,0.274-2.287-1.28-3.476c-1.555-1.189,0.503-5.442,1.189-7.774
			c0.686-2.332,2.607-5.991,3.887-7.271c1.28-1.281,5.351-2.835,6.174-2.378c0.823,0.457,5.625,4.756,8.781,6.494
			c3.156,1.738,12.439,5.214,14.131,5.625c1.692,0.412,3.704,1.281,4.025,2.012c0.24,0.548,0.607,1.198,1.122,1.509l-0.934,0.598
			c-1.021,0.654-1.319,2.011-0.666,3.032c0.419,0.655,1.128,1.012,1.851,1.012c0.405,0,0.815-0.113,1.181-0.347l1.77-1.133
			c0.536,0.14,1.083,0.135,1.666-0.145c0,0,0.96,0.183,1.463-0.32c0,0,1.418-0.091,1.784-0.96c0,0,0.96-0.183,1.235-0.595
			c0,0,0.686,1.189,1.646,0.777l0.229-1.235c0,0,1.122-1.709,0.025-2.674l2.361-1.511c0.683-0.437,1.033-1.188,1.001-1.944
			l13.47-8.621c1.8,0.938,4.329,1.338,7.14,1.338c6.374,0,14.189-2.048,18.196-4.493
			C462.595,102.743,464.291,100.449,464.146,98.052z M457.964,102.998c-5.981,3.649-19.49,5.736-23.697,2.772
			c-1.397-0.985-2.067-2.192-1.991-3.59c0.135-2.474,2.53-5.229,6.407-7.37c3.447-1.904,7.196-2.578,10.519-2.578
			c3.31,0,6.196,0.67,7.934,1.46c3.016,1.372,4.727,2.968,4.819,4.493C462.044,99.663,460.626,101.373,457.964,102.998z"/>
	</g>
	<g id="XMLID_32_">
		<path id="XMLID_41_" style="fill:#232323;" d="M372.077,232.495c-0.681,0.426-1.618,1.448-2.044,0.852
			c-0.426-0.596,2.555-2.47,3.322-3.066c0.767-0.596,3.066-2.725,2.47-3.322c-0.596-0.596-2.474,1.255-3.222,1.958
			c-0.786,0.739-2.655,2.301-3.081,1.79c-0.426-0.511,1.363-2.555,2.385-3.407c1.022-0.852,2.725-2.896,2.129-3.322
			c-0.596-0.426-2.129,0.767-3.151,1.874c-1.022,1.107-3.407,4.088-3.832,3.747c-0.426-0.341,0.511-2.385,1.022-3.322
			c0.511-0.937,1.618-3.747,0.852-4.003c-0.767-0.255-1.874,2.385-2.981,3.747c-1.107,1.363-3.066,5.621-3.747,5.536
			c-0.681-0.085-1.022-6.132-3.322-5.11c0,0-0.681,0.681-0.085,2.555c0.596,1.874,1.107,4.855,0.937,5.962
			c-0.17,1.107,0.17,3.407,1.448,4.173c1.277,0.767-1.277,12.605-1.874,15.586c-0.596,2.981-0.681,11.668-1.448,13.286
			c-0.766,1.618-2.496,8.261-2.994,11.327c-0.498,3.066,0.013,5.025-0.498,5.621c-0.511,0.596-0.852,3.832-1.618,2.385
			c-0.767-1.448-0.426-4.855-1.448-6.388c-1.022-1.533-1.192-2.385-1.192-2.385s0.681-4.344-4.684-5.025
			c-5.365-0.681-10.646,6.047-11.498,8.091c-0.852,2.044-3.066,5.876-0.766,9.368c2.3,3.492,2.649,6.899,3.965,7.069
			c0,0,1.145,1.789,0.294,2.47c-0.852,0.681-1.618,0.341-3.407,1.192c-1.789,0.852-2.913,0.511-4.735,0
			c-1.823-0.511-2.248-0.852-3.696-0.511c-1.448,0.341-2.725,0.937-4.088-0.085c-1.363-1.022-2.385-1.448-5.366-2.044
			c-2.981-0.596-2.811-2.981-3.577-5.195c-0.767-2.214-2.64-8.091-2.3-10.22c0.341-2.129,0.681-6.813,0.426-9.028
			c-0.255-2.214-1.022-3.407-0.596-5.025c0.401-1.525,0.953-5.471-0.127-7.917l3.612-6.13c0.525-0.891,0.49-1.949,0.018-2.791
			l7.815-13.261c1.163,0.475,2.393,0.718,3.686,0.718c0.931,0,1.894-0.123,2.887-0.371c6.11-1.524,11.465-7.294,13.405-10.572
			c3.263-5.512,4.463-12.101,3.057-16.785c-0.833-2.775-2.568-4.873-5.017-6.066c-9.046-4.407-16.945,1.484-20.961,7.866
			c-2.716,4.316-5.112,11.078-3.693,17.117c0.654,2.786,2.102,5.074,4.212,6.689l-7.804,13.242
			c-0.965-0.005-1.908,0.476-2.433,1.368l-2.853,4.841c-0.854,0.334-1.279,1.089-0.932,1.582l-0.583,0.99
			c-0.432-0.077-0.988-0.048-1.527,0.366c-1.107,0.852,0.511,1.107-0.681,1.874c-1.192,0.766-0.766,1.789-0.766,1.789
			s-1.327,0.667-0.866,2.49l-0.964,1.635c-0.786,1.333-0.342,3.051,0.991,3.837c0.447,0.263,0.937,0.388,1.42,0.388
			c0.428,0,0.849-0.103,1.233-0.291c0.027,0.1,0.047,0.197,0.059,0.287c0.17,1.363-0.255,7.75-0.681,10.901
			c-0.426,3.151-1.277,11.157-0.681,13.797c0.596,2.64,0.937,5.195,2.896,6.217c1.959,1.022,11.072,7.324,11.072,7.324
			s0.17,3.492,1.107,3.322c0.937-0.17,2.214-0.341,3.662,1.703c1.448,2.044,2.811,3.832,3.662,4.684
			c0.852,0.852,1.192,17.885,1.022,22.74c-0.17,4.855-0.255,15.33-0.426,16.948c-0.17,1.618,2.044,0.937,0.255,2.47
			c-1.788,1.533-4.94,5.195-4.088,7.665c0.852,2.47,2.299,2.385,0,8.346s-3.492,14.904-3.492,16.693c0,1.788-0.17,3.832-0.17,3.832
			l0.937,0.426c0,0,0.426,4.855-1.448,5.536c-1.874,0.681-3.577,3.662-5.025,7.239c-1.448,3.577-2.725,10.476-3.662,12.69
			c-0.937,2.214-2.811,4.769-2.811,4.769s-0.937-0.596-1.703-0.596c-0.766,0-0.426,3.747-0.426,3.747s-2.129,3.236-3.066,4.344
			c-0.937,1.107-3.577,5.366-4.344,6.728c-0.767,1.363-1.796,5.962,1.104,6.984c2.062,0.727,8.605,0.937,10.479-4.94
			c1.874-5.877,3.833-5.962,4.769-6.302c0.937-0.341,3.066-1.448,4.599-3.407c1.533-1.959,0.426-6.047-1.278-5.706
			c0,0-0.501-3.066,2.006-5.536c2.508-2.47,7.022-5.366,8.044-10.391c0,0,0.596-2.555,1.874-3.492
			c1.278-0.937,4.514-7.75,5.195-10.476c0,0,3.747,0,6.558-0.341c2.81-0.341,4.429-1.703,5.621-1.277c0,0-0.596,5.621-0.341,8.602
			s0.852,5.195-0.596,6.132s-3.577,7.665-3.832,12.264c-0.256,4.599-2.3,8.943-3.151,9.965c-0.852,1.022-2.129,2.129-2.214,3.236
			c-0.085,1.107-0.17,1.959-0.767,2.725c-0.596,0.766-1.788,3.747-0.852,4.684c0.937,0.937,2.81,2.47,2.81,2.47
			s-2.129,7.324,5.962,7.154c8.091-0.17,5.706-4.94,4.599-6.984c-1.107-2.044-1.192-6.132-0.852-7.154
			c0.341-1.022,2.129-2.214,1.703-3.151c-0.426-0.937-1.618-1.192-1.618-1.192s1.192-3.832,3.662-7.75
			c2.47-3.918,5.025-7.154,5.536-10.987c0.511-3.833,0.681-6.047,1.533-8.006c0.852-1.959,0.17-3.577,1.278-5.195
			c1.107-1.618,2.214-4.855,2.385-6.388c0,0,1.533-0.426,3.407,0c1.874,0.426,2.981,0.852,3.407,0.511
			c0.426-0.341,0.511-2.64,1.022-8.346c0.511-5.706,1.448-7.75,0.937-11.242c-0.511-3.492,0.04-4.258,0.148-5.195
			c0.107-0.937-0.233-2.385,0.448-3.322c0.681-0.937,1.788-3.407-1.022-5.791c-2.811-2.385-3.321-5.11-3.577-6.984
			c-0.256-1.874-0.085-4.429-0.937-5.791c0,0,2.896-0.511,2.896-1.959c0-1.448-0.426-6.558-0.852-12.945
			c-0.426-6.387-1.107-11.072-1.192-16.267c-0.085-5.195-0.681-10.816-0.085-14.734c0.596-3.918,0.852-7.58,0.341-10.816
			c-0.511-3.236-1.192-7.409-1.107-9.454c0.085-2.044,0-11.583,0.937-15.16c0.937-3.577,1.022-5.962,1.448-8.687
			c0.426-2.725,0.341-15.926,0.596-18.226c0.256-2.299-0.085-3.577,0.256-4.258c0.341-0.681,1.789-2.385,2.385-4.429
			c0,0,3.151-2.214,4.088-2.811c0.937-0.596,1.533-1.788,1.107-2.299C374.292,230.876,372.759,232.069,372.077,232.495z
			 M317.485,230.796c-1.006-4.282,0.304-10.163,3.337-14.984c2.601-4.134,7.069-8.051,12.33-8.051c1.612,0,3.301,0.368,5.032,1.212
			c1.752,0.854,2.95,2.318,3.56,4.352c1.173,3.909,0.054,9.758-2.784,14.553c-1.836,3.102-6.671,8.033-11.672,9.28
			c-2.193,0.547-4.163,0.299-5.861-0.736C319.398,235.184,318.072,233.291,317.485,230.796z"/>
	</g>
	<g id="XMLID_36_">
		<path id="XMLID_38_" style="fill:#232323;" d="M76.176,218.887l1.473,2.166c0,0-2.08,3.466,0,7.538
			c2.08,4.073,5.979,9.098,9.358,8.838c3.379-0.26,3.379-3.293,2.686-6.845c-0.693-3.553,0.953-9.878,1.82-11.438
			c0,0,3.293-0.953,1.993-3.293c0,0,5.112-3.726,10.138-4.592c5.026-0.867,16.55-3.639,18.716-3.986
			c2.166-0.347,3.119,1.646,6.499,0.087c3.379-1.56,5.892-1.82,7.105-4.159c1.213-2.339,2.426-3.899,2.686-9.531
			c0.26-5.632,0.173-23.395-0.52-25.995l2.426-1.56c0,0,7.712,5.112,11.004,7.972c3.293,2.859,6.672,6.152,8.578,7.625
			c1.906,1.473,3.466,3.379,3.726,6.325c0.26,2.946,1.82,9.358,7.019,16.377c5.199,7.019,7.625,14.384,7.625,14.384
			s-1.213,0.173-1.04,2.166c0.173,1.993,0,6.065,0,6.065s-2.253,2.166-0.52,4.246c1.733,2.08,4.072,3.12,5.632,2.686
			c0,0,1.473,3.813,8.665,3.119c7.192-0.693,5.026-5.459,3.813-7.105c-1.213-1.646-7.019-8.232-7.019-8.232
			s-1.213-3.553-1.993-3.986c-0.78-0.433-1.126-1.473-1.386-2.426c-0.26-0.953-3.813-13.171-4.679-16.983
			c-0.866-3.813-1.386-6.499-2.946-10.138c-1.56-3.639-3.639-5.632-3.986-7.625c-0.347-1.993-1.04-5.026-1.473-6.152
			c-0.433-1.126-1.646-3.033-2.946-4.072c-1.3-1.04-1.733-6.239-4.419-11.004s-6.065-9.445-6.065-9.445s0.347-1.126-3.206-4.073
			c-3.553-2.946-6.412-7.452-6.672-9.271c0,0,0.867-6.065,1.993-9.531c1.126-3.466,1.733-4.679,1.733-4.679s3.813-2.946,4.679-5.459
			c0.867-2.513,0.953-5.026,1.56-5.546c0.607-0.52,5.372,3.726,8.145,4.246c2.773,0.52,5.459-0.52,5.892-1.56
			c0.433-1.04-0.26-1.646-0.087-3.466c0.173-1.82,0.78-5.632,0.347-8.925c-0.433-3.293-1.3-8.751-1.3-8.751l0.607-0.607
			l-0.693-3.379c0,0,2.686-1.473,2.773-3.552c0,0,1.56-1.473,0.52-3.293c-1.04-1.82-7.105-9.791-7.105-9.791s0.087-0.693-0.52-1.646
			c-0.606-0.953-1.126-1.3-1.126-1.3s0.347-1.56-0.347-1.906c0,0,0-1.993-1.386-1.993c0,0-0.087-1.82-1.56-1.473
			c0,0-0.26-0.867-1.386-1.386c-1.126-0.52-1.3,1.126-2.166-0.173c-0.866-1.3-0.288-2.581-1.267-2.522
			c-0.688,0.042-0.984,0.332-1.079,0.743l-1.068-1.249c-0.583-0.682-1.461-0.951-2.285-0.8l-7.637-8.923
			c0.792-0.975,1.278-2.315,1.409-3.946c0.383-4.774-2.218-11.305-6.326-15.885c-6.596-7.353-16.62-13.149-23.042-8.505
			c-2.614,1.891-4.065,4.397-4.197,7.246c-0.212,4.574,2.901,9.813,9.002,15.152c6.768,5.922,12.768,8.281,17.16,8.281
			c1.577,0,2.941-0.309,4.064-0.861l7.72,9.021c-0.276,0.79-0.146,1.699,0.438,2.381l5.346,6.247
			c0.069,0.22,0.038,0.372-0.216,0.465c-0.708,0.26-1.249-0.007-1.574,0.953c-0.091,0.268,0,0.52,0,0.52s-6.239-7.192-13.69-4.419
			c-7.452,2.773-7.885,11.178-5.545,15.337c0,0-0.26,2.166-1.733,2.426c-1.473,0.26-2.773,0-2.773,0s-0.087,2.166,2.253,2.946
			c0,0-0.607,1.386-2.253,0c0,0-0.001,1.56,1.646,1.906c0,0-4.245,7.019-6.325,16.29c-2.08,9.271-2.773,17.85-5.286,22.789
			c-2.513,4.939-4.679,6.585-5.892,10.571c-1.213,3.986-5.546,5.459-3.553,16.463c1.993,11.004,2.859,8.665,3.033,11.784
			c0.173,3.119,0.52,3.293,2.513,4.332c0,0,0.173,7.192,0.78,10.051c0.606,2.859,3.726,9.271,4.419,10.831
			c0,0-0.953,1.213-0.693,2.6c0,0-6.845,0.087-11.178,1.646c-4.332,1.56-10.484,5.199-12.911,6.672
			c-2.426,1.473-7.885,4.333-9.271,4.419c-1.386,0.087-1.473-2.079-9.445,0c0,0-4.159-0.087-5.026,2.859
			C73.49,213.169,76.176,218.887,76.176,218.887z M144.488,45.509c-0.077,0.966-0.35,2.263-1.208,2.956
			c-3.051,2.463-10.671,0.995-19.332-6.582c-5.445-4.764-8.348-9.456-8.174-13.21c0.098-2.114,1.172-3.927,3.194-5.389
			c1.182-0.855,2.535-1.225,3.98-1.225c5.348,0,11.956,5.068,15.827,9.384C143.089,36.252,144.761,42.105,144.488,45.509z
			 M160.883,74.916c2.541,2.316,1.672,4.117,1.672,4.117l-6.582-6.467c-0.649-0.638,0.123-0.852,0.573-0.627
			C156.996,72.164,158.342,72.601,160.883,74.916z M160.379,98.99l4.1-3.924c0,0-0.353,2.821-0.661,3.747
			c-0.309,0.926-0.176,2.028-1.058,2.028S160.688,99.519,160.379,98.99z M155.75,88.321c0.485-0.529,0-2.028,0-2.028
			c1.852-0.397,7.054-4.497,7.054-4.497l0.441,0.749c0,0-0.573,0.97-1.543,1.631c-0.97,0.661-2.601,2.204-3.924,3.35
			c-1.322,1.146-2.998,3.174-2.998,3.174C154.251,89.423,155.265,88.85,155.75,88.321z"/>
	</g>
	<g id="XMLID_101_">
		<g id="XMLID_30_">
			<path id="XMLID_63_" style="fill:#232323;" d="M245.975,363.724c-3.997-3.823-6.344-5.475-8.603-5.301
				c-2.259,0.174-4.866-1.651-4.953-2.694c-0.087-1.043-3.65-3.65-6.17-4.693c-2.52-1.043-4.519-0.521-4.605,0.869
				c-0.087,1.39,0,3.041-0.782,4.432c-0.782,1.39-1.738,4.779-2.259,5.475c-0.521,0.695-0.521,1.564-0.174,1.912
				c0,0-7.386,4.432-13.382,6.865c-5.996,2.433-7.734,2.52-13.121,6.865c-5.388,4.345-8.342,10.602-9.472,10.254
				c-1.13-0.348-3.302-4.084-4.606-6.778c-1.303-2.694-5.214-9.385-7.473-11.731c-2.259-2.346-4.084-7.56-4.345-8.863
				c-0.261-1.303-0.869-2.52-1.043-3.215c-0.174-0.695,1.217-3.389,0.521-7.299c0,0,6.344-5.735,9.298-9.298
				c2.954-3.563,3.476-7.908,2.346-8.777c-1.13-0.869-6.691-0.521-12.166,0c-5.475,0.521-11.818,2.086-12.948,1.39
				c-1.13-0.695-4.345-4.171-5.996-8.69c-1.651-4.519-3.389-10.602-4.171-14.599c-0.782-3.997-1.825-8.863-2.955-13.295
				c-1.13-4.432-5.648-13.295-8.168-13.991c-2.52-0.695-5.474,0.174-5.822-1.043c-0.348-1.216,0.521-3.215,1.477-4.519
				c0.956-1.303,0.956-4.171,0.956-4.171s1.651-0.782,2.954-4.605c0,0,0.174,3.215,1.999,3.389c1.825,0.174,2.167,1.335,2.868,1.217
				c0.8-0.135,1.043-1.303,2.781-0.782c1.738,0.521,3.215-0.087,4.258-0.782c1.043-0.695,1.738-0.087,3.215,0.695
				c1.477,0.782,6.865,4.953,10.254,4.432c3.389-0.521,1.825-1.651,4.953-1.999c3.128-0.348,6.344-4.258,6.865-6.17
				c0,0-6.17,3.563-7.473,1.303c-1.303-2.259,4.253-5.086,4.253-5.086s-3.731,0.307-5.469,0.741
				c-1.608,0.402,1.779-4.244,3.476-5.36c-1.357,0.65-6.389,1.713-7.647,5.708c-1.477,4.692-10.688,3.563-11.557,2.868
				c-0.869-0.695-1.912-4.258-3.476-4.432c-1.564-0.174-0.261-1.13-2.781-2.781c-2.52-1.651-4.953-0.869-7.039-0.521
				c-1.596,0.266-0.652-2.471-3.118-4.627l6.414-4.913c0.322,0.156,0.665,0.278,1.044,0.323c0.133,0.016,0.268,0.023,0.409,0.023
				c4.932-0.001,14.273-9.535,16.141-11.495c0.505-0.53,1.056-1.093,1.629-1.679c4.853-4.957,10.354-10.576,7.47-14.68
				c-1.616-2.301-5.072-0.093-6.372,0.739c-3.777,2.413-9.563,7.532-14.397,12.739c-6.136,6.608-7.536,9.716-7.637,11.318
				l-7.825,5.994c-0.092-0.029-0.179-0.058-0.275-0.086c-6.691-1.912-10.602-1.39-12.861,1.477
				c-2.259,2.868-4.432,3.997-4.432,3.997s-8.081,1.477-8.081,2.607c0,1.13,0.608,2.086,3.128,2.172l1.564,2.086
				c0,0-5.301,4.258-7.299,5.996c-1.999,1.738-1.999,4.345-3.563,5.388c-1.564,1.043-3.041,3.737-1.912,5.561
				c1.13,1.825,5.562,8.429,8.081,9.124c2.52,0.695,5.475,0.956,8.255,5.648c0,0-0.695,12.6-0.174,14.946
				c0.521,2.346,1.477,4.345,3.91,6.17c2.433,1.825,3.041,5.475,4.953,9.298c1.912,3.823,6.344,9.298,6.865,11.644
				c0.521,2.346,2.781,7.386,1.825,9.472c-0.956,2.086-7.299,11.644-10.167,16.684c-2.868,5.04-5.648,13.208-7.126,13.904
				c-1.477,0.695-5.04,4.779-4.866,5.996c0.174,1.216,1.303,9.124,2.607,11.818c1.303,2.694,5.04,20.421,5.996,23.202
				c0.956,2.781,2.433,11.21,2.259,12.166c-0.174,0.956-2.607,0.174-1.39,2.52c1.217,2.346-4.606,4.605-6.17,5.735
				c-1.564,1.13-3.215,1.912-5.388,2.086c-2.173,0.174-4.084,0.695-4.953,3.041c-0.93,2.51,1.217,3.563,7.647,3.65
				c6.43,0.087,9.732,0,11.644-0.782c1.912-0.782,3.563,0.087,4.606,0.087c1.043,0,4.084,0.956,8.516-0.348
				c4.432-1.304,1.912-4.432,1.13-5.561c-0.782-1.13-1.477-3.824-1.738-4.953c-0.261-1.13-0.087-3.823-1.912-4.432
				c-1.825-0.608-2.085-0.956-2.433-3.65c-0.348-2.694-1.477-11.036-0.782-14.773c0.695-3.736-0.608-12.861-1.999-16.423
				c-1.39-3.563-2.086-7.56-1.651-8.603c0.435-1.043,7.299-7.734,11.557-10.428c4.258-2.694,8.777-5.735,9.906-6.952
				c0,0,3.215-0.521,4.519-1.477c1.303-0.956,2.52-2.694,3.041-2.694c0.521,0,1.825,4.605,5.301,9.037
				c3.476,4.432,16.51,17.032,18.596,18.596c2.086,1.564,4.866,4.171,5.996,4.519c1.13,0.348,3.389,2.52,6.083,1.303
				c2.694-1.217,5.301-3.128,7.56-5.388c2.259-2.259,4.171-3.823,6.952-5.127c2.781-1.303,9.124-7.386,11.557-9.385
				c2.433-1.999,6.865-5.822,10.515-7.473c3.65-1.651,5.735-3.302,7.473-3.389c0,0,0.174,3.041,1.39,2.955
				c1.217-0.087,2.259-1.304,2.868-2.172c0,0,8.342-1.303,10.08-0.521c1.738,0.782,2.607,0.869,3.302,0.956
				c0.695,0.087,4.171,3.389,6.17,1.217C252.231,372.674,249.972,367.547,245.975,363.724z M144.108,236.414
				c6.389-6.379,11.491-10.007,13.238-10.542c0.475,2.23-4.54,7.353-7.318,10.19c-0.583,0.596-1.144,1.169-1.66,1.71
				c-6.115,6.418-12.2,10.719-13.741,10.544C134.969,246.9,137.946,242.567,144.108,236.414z M101.78,281.091
				c0,0-1.073-1.133-1.615-1.279l3.113-3.69c0,0,0.073,1.206,0.621,1.644c0,0-0.146,2.229,0.438,3.142L101.78,281.091z
				 M110.878,283.576c-0.183,0.365-0.877,0.292-1.461,0c-0.585-0.292-1.315-1.498-1.315-1.498l1.681-0.146
				C109.782,281.932,111.061,283.211,110.878,283.576z"/>
		</g>
	</g>
</g>
<g id="DESIGNED_BY_FREEPIK">
	<g id="XMLID_1_">
		<g id="XMLID_319_">
			<g id="XMLID_338_">
				<path id="XMLID_346_" style="fill:#1D262D;" d="M260.104,465.465c-0.433,0.443-0.804,0.932-1.108,1.453l-0.465-0.241
					c-0.067-0.297-0.35-0.502-0.659-0.466c-0.331,0.039-0.567,0.339-0.529,0.67c0.039,0.331,0.339,0.567,0.67,0.528
					c0.065-0.007,0.127-0.025,0.184-0.052l0.451,0.234c-0.251,0.554-0.433,1.139-0.539,1.743l0.747,0.132
					c0.23-1.306,0.85-2.507,1.792-3.473L260.104,465.465z"/>
				<path id="XMLID_345_" style="fill:#1D262D;" d="M265.591,463.164c-0.171,0-0.341,0.006-0.509,0.017l-0.074-0.626
					c0.188-0.149,0.296-0.389,0.266-0.645c-0.046-0.393-0.402-0.674-0.795-0.628c-0.394,0.046-0.675,0.402-0.628,0.796
					c0.03,0.254,0.189,0.461,0.404,0.563l0.073,0.624c-0.714,0.116-1.402,0.332-2.06,0.646l0.327,0.685
					c0.935-0.447,1.941-0.674,2.995-0.674c0.497,0,0.993,0.053,1.476,0.158l0.16-0.741
					C266.692,463.222,266.142,463.164,265.591,463.164z"/>
				<path id="XMLID_344_" style="fill:#1D262D;" d="M272.194,465.711c0.331-0.04,0.566-0.341,0.525-0.672
					c-0.04-0.331-0.341-0.566-0.672-0.525c-0.31,0.038-0.535,0.304-0.53,0.608l-0.416,0.363c-0.418-0.43-0.89-0.813-1.407-1.14
					l-0.404,0.642c1.135,0.715,2.021,1.727,2.564,2.925l0.69-0.313c-0.251-0.554-0.567-1.071-0.942-1.545l0.402-0.351
					C272.065,465.715,272.128,465.719,272.194,465.711z"/>
				<path id="XMLID_343_" style="fill:#1D262D;" d="M265.044,473.372c-0.386,0.023-0.775,0.035-1.157,0.035
					c-0.88,0-1.733-0.061-2.479-0.18c-0.391-0.062-0.846-0.154-1.271-0.292c1.047,1.861,3.069,3.125,5.389,3.125
					c2.855,0,5.263-1.916,5.949-4.503c-0.682,0.449-1.505,0.825-2.458,1.122C267.838,473.047,266.463,473.287,265.044,473.372z"/>
				<path id="XMLID_339_" style="fill:#1D262D;" d="M265.591,464.68c-3.351,0-6.079,2.666-6.079,5.943
					c0,0.425,0.046,0.849,0.137,1.261c0.674,0.483,2.706,0.891,5.348,0.731c2.88-0.174,5.297-0.958,6.672-2.159
					c-0.005-0.194-0.021-0.39-0.045-0.581C271.244,466.914,268.65,464.68,265.591,464.68z M263.432,471.195
					c-1.02,0-1.85-0.83-1.85-1.85c0-1.021,0.83-1.851,1.85-1.851c1.02,0,1.85,0.83,1.85,1.851
					C265.282,470.365,264.452,471.195,263.432,471.195z M268.169,470.287c-0.75,0-1.36-0.61-1.36-1.36s0.61-1.36,1.36-1.36
					s1.36,0.61,1.36,1.36S268.919,470.287,268.169,470.287z"/>
			</g>
			<path id="XMLID_336_" style="fill:#1D262D;" d="M281.595,466.547c-0.295-0.116-0.806-0.31-1.383-0.238
				c-0.551,0.069-0.844,0.341-0.844,1.007v0.866h2.229v1.717h-2.229v5.455h-1.932v-5.455h-1.339v-1.717h1.339v-0.889
				c0-1.68,0.896-2.782,2.568-2.782c0.643,0,1.157,0.121,1.59,0.308V466.547z"/>
			<path id="XMLID_334_" style="fill:#1D262D;" d="M286.297,469.878c-0.177-0.029-0.357-0.046-0.525-0.046
				c-0.896,0-1.51,0.548-1.51,1.613v3.908h-1.933v-7.172h1.873v0.784c0.451-0.673,1.14-0.977,2.021-0.977
				c0.414,0,0.848,0.128,1.095,0.337L286.297,469.878z"/>
			<path id="XMLID_331_" style="fill:#1D262D;" d="M293.965,471.757c0,0.222-0.016,0.488-0.037,0.651h-5.085
				c0.207,1.036,0.933,1.487,1.843,1.487c0.622,0,1.295-0.252,1.813-0.689l1.133,1.243c-0.814,0.748-1.851,1.089-3.057,1.089
				c-2.198,0-3.724-1.496-3.724-3.753c0-2.258,1.48-3.797,3.627-3.797C292.543,467.99,293.958,469.522,293.965,471.757z
				 M288.851,471.091h3.175c-0.178-0.918-0.732-1.437-1.562-1.437C289.554,469.655,289.021,470.203,288.851,471.091z"/>
			<path id="XMLID_328_" style="fill:#1D262D;" d="M301.619,471.757c0,0.222-0.016,0.488-0.037,0.651h-5.085
				c0.207,1.036,0.933,1.487,1.843,1.487c0.622,0,1.296-0.252,1.814-0.689l1.133,1.243c-0.815,0.748-1.851,1.089-3.058,1.089
				c-2.198,0-3.723-1.496-3.723-3.753c0-2.258,1.48-3.797,3.627-3.797C300.197,467.99,301.611,469.522,301.619,471.757z
				 M296.504,471.091h3.175c-0.178-0.918-0.733-1.437-1.561-1.437C297.208,469.655,296.674,470.203,296.504,471.091z"/>
			<path id="XMLID_325_" style="fill:#1D262D;" d="M309.964,471.764c0,2.154-1.495,3.775-3.472,3.775
				c-0.962,0-1.644-0.378-2.109-0.933v3.708h-1.925v-10.133h1.888v0.792c0.467-0.585,1.154-0.984,2.139-0.984
				C308.469,467.99,309.964,469.611,309.964,471.764z M304.287,471.764c0,1.133,0.748,1.977,1.844,1.977
				c1.14,0,1.85-0.881,1.85-1.977c0-1.095-0.71-1.976-1.85-1.976C305.035,469.789,304.287,470.632,304.287,471.764z"/>
			<path id="XMLID_322_" style="fill:#1D262D;" d="M313.068,465.836c0,0.696-0.541,1.229-1.236,1.229
				c-0.696,0-1.229-0.533-1.229-1.229c0-0.695,0.532-1.243,1.229-1.243C312.527,464.592,313.068,465.14,313.068,465.836z
				 M312.808,475.354h-1.932v-7.172h1.932V475.354z"/>
			<path id="XMLID_320_" style="fill:#1D262D;" d="M316.032,470.736l2.702-2.554h2.368l-3.478,3.375l3.501,3.797h-2.376
				l-2.717-2.901v2.901H314.1v-10.658h1.932V470.736z"/>
		</g>
		<g id="XMLID_2_">
			<path id="XMLID_3_" style="fill:#1D262D;" d="M184.412,475.29v-1.055c-0.527,0.718-1.391,1.23-2.387,1.23
				c-1.846,0-3.149-1.406-3.149-3.706c0-2.256,1.289-3.721,3.149-3.721c0.952,0,1.816,0.469,2.387,1.245v-3.765h1.099v9.771H184.412
				z M184.412,473.371v-3.208c-0.395-0.615-1.245-1.143-2.124-1.143c-1.42,0-2.27,1.172-2.27,2.739c0,1.567,0.85,2.725,2.27,2.725
				C183.167,474.484,184.017,473.986,184.412,473.371z"/>
			<path id="XMLID_6_" style="fill:#1D262D;" d="M186.932,471.745c0-2.051,1.465-3.706,3.486-3.706c2.139,0,3.398,1.67,3.398,3.794
				v0.278h-5.727c0.088,1.333,1.025,2.446,2.549,2.446c0.806,0,1.626-0.322,2.182-0.894l0.527,0.718
				c-0.703,0.703-1.655,1.084-2.812,1.084C188.44,475.465,186.932,473.957,186.932,471.745z M190.403,468.947
				c-1.509,0-2.256,1.274-2.314,2.358h4.644C192.718,470.25,192.015,468.947,190.403,468.947z"/>
			<path id="XMLID_9_" style="fill:#1D262D;" d="M194.607,474.352l0.571-0.791c0.469,0.542,1.362,1.011,2.329,1.011
				c1.084,0,1.67-0.513,1.67-1.216c0-1.714-4.38-0.659-4.38-3.281c0-1.099,0.952-2.036,2.636-2.036c1.202,0,2.051,0.454,2.623,1.025
				l-0.513,0.762c-0.424-0.513-1.201-0.894-2.109-0.894c-0.966,0-1.567,0.483-1.567,1.113c0,1.553,4.379,0.527,4.379,3.281
				c0,1.187-0.952,2.139-2.783,2.139C196.306,475.465,195.325,475.114,194.607,474.352z"/>
			<path id="XMLID_11_" style="fill:#1D262D;" d="M201.477,466.471c0-0.41,0.337-0.747,0.732-0.747c0.41,0,0.747,0.337,0.747,0.747
				c0,0.41-0.337,0.732-0.747,0.732C201.814,467.204,201.477,466.881,201.477,466.471z M201.667,475.29v-7.075h1.099v7.075H201.667z
				"/>
			<path id="XMLID_14_" style="fill:#1D262D;" d="M204.582,477.106l0.556-0.82c0.586,0.703,1.289,0.967,2.3,0.967
				c1.172,0,2.271-0.571,2.271-2.124v-1.011c-0.513,0.718-1.377,1.26-2.373,1.26c-1.846,0-3.149-1.377-3.149-3.662
				c0-2.271,1.289-3.677,3.149-3.677c0.952,0,1.802,0.469,2.373,1.245v-1.069h1.099v6.87c0,2.344-1.641,3.076-3.369,3.076
				C206.237,478.161,205.416,477.925,204.582,477.106z M209.708,473.253v-3.091c-0.381-0.615-1.23-1.143-2.109-1.143
				c-1.421,0-2.27,1.128-2.27,2.695c0,1.553,0.849,2.695,2.27,2.695C208.478,474.411,209.328,473.869,209.708,473.253z"/>
			<path id="XMLID_17_" style="fill:#1D262D;" d="M217.413,475.29v-4.629c0-1.245-0.63-1.641-1.582-1.641
				c-0.864,0-1.685,0.527-2.094,1.099v5.171h-1.099v-7.075h1.099v1.025c0.497-0.586,1.464-1.201,2.519-1.201
				c1.479,0,2.256,0.747,2.256,2.285v4.966H217.413z"/>
			<path id="XMLID_19_" style="fill:#1D262D;" d="M219.932,471.745c0-2.051,1.465-3.706,3.486-3.706c2.139,0,3.398,1.67,3.398,3.794
				v0.278h-5.727c0.088,1.333,1.025,2.446,2.548,2.446c0.806,0,1.626-0.322,2.183-0.894l0.527,0.718
				c-0.703,0.703-1.655,1.084-2.813,1.084C221.441,475.465,219.932,473.957,219.932,471.745z M223.404,468.947
				c-1.509,0-2.256,1.274-2.314,2.358h4.643C225.718,470.25,225.015,468.947,223.404,468.947z"/>
			<path id="XMLID_22_" style="fill:#1D262D;" d="M233.35,475.29v-1.055c-0.527,0.718-1.392,1.23-2.388,1.23
				c-1.845,0-3.149-1.406-3.149-3.706c0-2.256,1.289-3.721,3.149-3.721c0.952,0,1.817,0.469,2.388,1.245v-3.765h1.098v9.771H233.35z
				 M233.35,473.371v-3.208c-0.396-0.615-1.245-1.143-2.124-1.143c-1.421,0-2.27,1.172-2.27,2.739c0,1.567,0.85,2.725,2.27,2.725
				C232.105,474.484,232.954,473.986,233.35,473.371z"/>
			<path id="XMLID_25_" style="fill:#1D262D;" d="M239.692,475.29v-9.771h1.099v3.765c0.571-0.776,1.421-1.245,2.388-1.245
				c1.845,0,3.149,1.465,3.149,3.721c0,2.3-1.304,3.706-3.149,3.706c-0.996,0-1.86-0.513-2.388-1.23v1.055H239.692z M242.9,474.484
				c1.436,0,2.285-1.157,2.285-2.725c0-1.567-0.85-2.739-2.285-2.739c-0.864,0-1.729,0.527-2.109,1.143v3.208
				C241.171,473.986,242.036,474.484,242.9,474.484z"/>
			<path id="XMLID_28_" style="fill:#1D262D;" d="M247.528,477.062c0.161,0.073,0.425,0.117,0.601,0.117
				c0.483,0,0.806-0.161,1.055-0.747l0.469-1.069l-2.959-7.148h1.187l2.358,5.801l2.344-5.801h1.2l-3.544,8.511
				c-0.425,1.024-1.143,1.421-2.08,1.436c-0.234,0-0.6-0.044-0.806-0.104L247.528,477.062z"/>
		</g>
	</g>
</g>
</svg>
